HIERARCHY
ROOT Hips
{
	OFFSET 0.000000 89.005402 0.000000
	CHANNELS 6 Xposition Yposition Zposition Xrotation Yrotation Zrotation
	JOINT Spine
	{
		OFFSET 0.116900 10.681000 0.373400
		CHANNELS 3 Xrotation Yrotation Zrotation
		JOINT Spine1
		{
			OFFSET 0.000000 13.840401 0.053500
			CHANNELS 3 Xrotation Yrotation Zrotation
			JOINT Spine2
			{
				OFFSET 0.000000 14.712700 -0.366200
				CHANNELS 3 Xrotation Yrotation Zrotation
				JOINT Neck
				{
					OFFSET 0.000000 35.415497 -3.314200
					CHANNELS 3 Xrotation Yrotation Zrotation
					JOINT Head
					{
						OFFSET 0.000000 16.899200 1.218300
						CHANNELS 3 Xrotation Yrotation Zrotation
						JOINT HeadTop_End
						{
							OFFSET 0.000000 22.206207 2.192500
							CHANNELS 3 Xrotation Yrotation Zrotation
							End Site
							{
								OFFSET 0.000000 22.314178 0.000000
							}
						}
					}
				}
				JOINT LeftShoulder
				{
					OFFSET 12.896400 26.716293 -4.548400
					CHANNELS 3 Xrotation Yrotation Zrotation
					JOINT LeftArm
					{
						OFFSET 19.027000 -4.857010 -1.718400
						CHANNELS 3 Xrotation Yrotation Zrotation
						JOINT LeftForeArm
						{
							OFFSET 24.179897 0.000000 0.000000
							CHANNELS 3 Xrotation Yrotation Zrotation
							JOINT LeftHand
							{
								OFFSET 27.156403 0.000000 0.000000
								CHANNELS 3 Xrotation Yrotation Zrotation
								JOINT LeftHandIndex1
								{
									OFFSET 16.441200 0.000000 0.000000
									CHANNELS 3 Xrotation Yrotation Zrotation
									JOINT LeftHandIndex2
									{
										OFFSET 4.821899 0.000000 0.000000
										CHANNELS 3 Xrotation Yrotation Zrotation
										JOINT LeftHandIndex3
										{
											OFFSET 6.386497 0.000000 0.000000
											CHANNELS 3 Xrotation Yrotation Zrotation
											JOINT LeftHandIndex4
											{
												OFFSET 5.188988 0.000000 0.000000
												CHANNELS 3 Xrotation Yrotation Zrotation
												End Site
												{
													OFFSET -0.178703 5.185913 0.000177
												}
											}
										}
									}
								}
								JOINT LeftHandThumb1
								{
									OFFSET 6.534897 -5.032593 5.900300
									CHANNELS 3 Xrotation Yrotation Zrotation
									JOINT LeftHandThumb2
									{
										OFFSET 3.818176 -2.204422 2.204423
										CHANNELS 3 Xrotation Yrotation Zrotation
										JOINT LeftHandThumb3
										{
											OFFSET 3.252098 -1.877594 1.877601
											CHANNELS 3 Xrotation Yrotation Zrotation
											JOINT LeftHandThumb4
											{
												OFFSET 5.251778 -3.032120 3.032117
												CHANNELS 3 Xrotation Yrotation Zrotation
												End Site
												{
													OFFSET 0.000023 6.780014 0.000000
												}
											}
										}
									}
								}
							}
						}
					}
				}
				JOINT RightShoulder
				{
					OFFSET -12.896300 26.716293 -4.548400
					CHANNELS 3 Xrotation Yrotation Zrotation
					JOINT RightArm
					{
						OFFSET -19.027000 -4.857010 -1.718400
						CHANNELS 3 Xrotation Yrotation Zrotation
						JOINT RightForeArm
						{
							OFFSET -24.179897 0.000000 0.000000
							CHANNELS 3 Xrotation Yrotation Zrotation
							JOINT RightHand
							{
								OFFSET -27.156403 0.000000 0.000000
								CHANNELS 3 Xrotation Yrotation Zrotation
								JOINT RightHandThumb1
								{
									OFFSET -6.591202 -4.852203 5.988100
									CHANNELS 3 Xrotation Yrotation Zrotation
									JOINT RightHandThumb2
									{
										OFFSET -3.818176 -2.204422 2.204423
										CHANNELS 3 Xrotation Yrotation Zrotation
										JOINT RightHandThumb3
										{
											OFFSET -3.252098 -1.877594 1.877601
											CHANNELS 3 Xrotation Yrotation Zrotation
											JOINT RightHandThumb4
											{
												OFFSET -5.251778 -3.032120 3.032117
												CHANNELS 3 Xrotation Yrotation Zrotation
												End Site
												{
													OFFSET -0.000023 6.780014 0.000000
												}
											}
										}
									}
								}
								JOINT RightHandIndex1
								{
									OFFSET -16.029404 0.000000 0.000000
									CHANNELS 3 Xrotation Yrotation Zrotation
									JOINT RightHandIndex2
									{
										OFFSET -5.213303 0.000000 0.000000
										CHANNELS 3 Xrotation Yrotation Zrotation
										JOINT RightHandIndex3
										{
											OFFSET -6.386528 0.000000 0.000000
											CHANNELS 3 Xrotation Yrotation Zrotation
											JOINT RightHandIndex4
											{
												OFFSET -5.189026 0.000000 0.000000
												CHANNELS 3 Xrotation Yrotation Zrotation
												End Site
												{
													OFFSET 0.236702 5.183624 0.001972
												}
											}
										}
									}
								}
							}
						}
					}
				}
			}
		}
	}
	JOINT LeftUpLeg
	{
		OFFSET 14.073000 -7.904099 -1.463000
		CHANNELS 3 Xrotation Yrotation Zrotation
		JOINT LeftLeg
		{
			OFFSET -0.109806 -34.073280 4.093200
			CHANNELS 3 Xrotation Yrotation Zrotation
			JOINT LeftFoot
			{
				OFFSET 0.109806 -29.899420 -6.319000
				CHANNELS 3 Xrotation Yrotation Zrotation
				JOINT LeftToeBase
				{
					OFFSET 1.551100 -14.988700 20.535801
					CHANNELS 3 Xrotation Yrotation Zrotation
					JOINT LeftToe_End
					{
						OFFSET 0.221200 0.570800 13.248301
						CHANNELS 3 Xrotation Yrotation Zrotation
						End Site
						{
							OFFSET 0.000000 13.262435 0.000000
						}
					}
				}
			}
		}
	}
	JOINT RightUpLeg
	{
		OFFSET -13.839300 -7.904099 -1.463000
		CHANNELS 3 Xrotation Yrotation Zrotation
		JOINT RightLeg
		{
			OFFSET 0.109694 -34.073219 4.093300
			CHANNELS 3 Xrotation Yrotation Zrotation
			JOINT RightFoot
			{
				OFFSET -0.109694 -29.899384 -6.319200
				CHANNELS 3 Xrotation Yrotation Zrotation
				JOINT RightToeBase
				{
					OFFSET -1.551100 -14.988700 20.535801
					CHANNELS 3 Xrotation Yrotation Zrotation
					JOINT RightToe_End
					{
						OFFSET -0.221200 0.570900 13.248299
						CHANNELS 3 Xrotation Yrotation Zrotation
						End Site
						{
							OFFSET 0.000000 13.262440 0.000000
						}
					}
				}
			}
		}
	}
}
MOTION
Frames: 8
Frame Time: 0.033333
-0.384552 71.819824 -0.075035 -5.398678 -46.211984 -0.238050 9.452225 7.171212 -1.616267 2.187714 0.989898 -0.915631 2.202829 0.982779 -0.894153 0.084651 13.220553 4.538680 8.920924 20.138143 -4.130236 0.000001 -0.000000 0.000001 1.117178 3.546346 -8.633310 -53.487006 4.935506 -51.502987 0.000102 -106.358114 0.000107 1.988608 -7.706152 -15.869248 0.255310 3.378220 -45.814344 5.654091 5.847758 -88.067462 2.162137 4.544816 -50.866376 -0.000001 0.000003 -0.000002 -6.141215 -11.690803 -6.761682 9.914115 42.595525 3.409850 -0.422804 8.108089 27.509109 0.000002 -0.000004 0.000003 3.036125 13.027195 -5.371407 -48.713708 27.172818 83.457071 0.000114 105.988273 -0.000125 -8.345369 17.548105 8.775676 -7.341095 13.749659 7.412323 9.855756 -44.489103 -3.903267 -0.115772 -14.513088 -28.973884 -0.000001 0.000000 0.000002 -0.124378 -2.384785 45.108857 4.500582 -4.654548 88.071157 1.723231 -3.618379 50.920116 0.000001 -0.000002 -0.000001 -31.861384 6.395817 19.963972 59.337548 -8.188278 3.970981 -25.244823 -6.905728 -16.448612 -1.594048 0.000002 0.000001 0.000000 -0.000000 -0.000000 -18.986205 -11.114473 -32.040858 59.475006 -5.224232 -6.737390 -30.568822 -9.909671 26.194325 -0.012998 0.000028 -0.000002 -0.000000 -0.000000 -0.000000 
-0.682975 72.113846 -0.176227 -6.715028 -45.409632 -0.735690 8.461110 4.987177 -1.334477 3.546064 0.203086 -1.350948 3.566402 0.188866 -1.319637 1.307889 11.813698 3.810808 9.377361 22.322103 -3.188279 0.000001 -0.000000 0.000001 0.485948 2.788738 -6.508386 -46.679033 5.658831 -52.967502 0.000222 -105.451011 0.000219 1.728546 -7.164387 -14.486845 0.255311 3.378219 -45.814341 5.654092 5.847757 -88.067462 2.162135 4.544816 -50.866372 0.000001 0.000003 -0.000001 -6.141213 -11.690800 -6.761685 9.914115 42.595529 3.409857 -0.422807 8.108089 27.509109 -0.000001 -0.000001 -0.000000 4.639794 15.178101 -3.789753 -49.618705 27.147309 78.576566 0.000133 105.507585 -0.000127 -13.415764 17.925966 10.878332 -7.341095 13.749658 7.412322 9.855752 -44.489103 -3.903275 -0.115770 -14.513088 -28.973878 0.000002 -0.000002 -0.000001 -0.124378 -2.384787 45.108857 4.500582 -4.654547 88.071157 1.723230 -3.618381 50.920116 -0.000000 -0.000001 0.000003 -30.120683 5.597457 18.088757 58.247512 -6.791963 5.584910 -25.027331 -7.075816 -17.857799 -1.891881 0.000003 -0.000001 0.000000 0.000001 0.000000 -17.779203 -12.575121 -32.967861 59.044527 -3.892533 -6.187800 -31.064957 -10.233984 25.081059 -0.012998 0.000028 -0.000002 0.000000 -0.000000 -0.000000 
-1.399259 72.356743 -0.056869 -9.401957 -41.421539 -1.765390 6.978678 2.682236 -0.817284 4.892499 -0.564150 -1.693406 4.913383 -0.592912 -1.654274 2.374216 10.184156 2.612232 10.336791 23.885313 -1.932599 -0.000001 0.000000 -0.000000 -0.132617 2.254424 -4.352075 -38.668757 1.988495 -56.966622 -0.000349 -101.722151 -0.000340 1.065025 -6.678650 -10.863196 0.255313 3.378216 -45.814341 5.654100 5.847758 -88.067462 2.162135 4.544816 -50.866376 0.000001 -0.000001 0.000002 -6.141210 -11.690805 -6.761684 9.914108 42.595522 3.409858 -0.422800 8.108087 27.509109 -0.000002 0.000001 -0.000000 6.094535 16.792736 -2.236920 -50.221435 26.896460 72.631187 0.000073 105.154362 -0.000063 -20.734065 18.355054 12.697782 -7.341097 13.749657 7.412323 9.855747 -44.489103 -3.903270 -0.115773 -14.513088 -28.973881 -0.000000 -0.000001 -0.000000 -0.124378 -2.384783 45.108857 4.500584 -4.654547 88.071157 1.723229 -3.618380 50.920116 0.000002 -0.000000 -0.000001 -27.751311 4.300816 15.152396 56.964334 -6.845439 7.892059 -24.369365 -6.981227 -18.930404 -1.690239 -0.000003 0.000001 -0.000000 0.000001 -0.000000 -13.539753 -17.092957 -34.808543 57.802839 -1.721378 -4.907430 -32.532365 -11.870960 23.663761 -0.012998 0.000026 -0.000002 -0.000000 0.000001 0.000000 
-2.588206 72.641075 0.400146 -13.327742 -35.470084 -2.711828 4.827001 1.282238 -0.102157 5.977744 -0.653386 -1.899465 6.001997 -0.701597 -1.858628 3.193399 8.302197 1.057259 11.008354 25.464938 -2.198199 0.000000 -0.000000 0.000001 -0.801035 1.574345 -1.303383 -28.408633 -6.094576 -61.344197 -0.000147 -100.000294 -0.000159 0.770955 -7.414713 -9.934477 0.255312 3.378216 -45.814348 5.654090 5.847757 -88.067462 2.162136 4.544820 -50.866379 0.000002 0.000001 -0.000003 -6.141215 -11.690799 -6.761688 9.914113 42.595522 3.409848 -0.422806 8.108094 27.509115 -0.000002 -0.000001 0.000000 7.334222 17.900591 -0.544254 -50.348893 27.549565 65.602464 0.000118 105.832381 -0.000122 -27.028317 18.770016 10.034852 -7.341092 13.749661 7.412321 9.855752 -44.489103 -3.903270 -0.115771 -14.513081 -28.973881 -0.000000 -0.000002 -0.000000 -0.124375 -2.384784 45.108857 4.500580 -4.654547 88.071157 1.723229 -3.618379 50.920112 -0.000001 0.000001 0.000001 -23.992066 2.891909 12.285255 55.105509 -6.865662 9.539063 -23.676270 -8.570083 -19.944144 -1.259661 0.000005 0.000006 -0.000000 0.000001 -0.000000 -6.696688 -24.448473 -36.808388 54.822349 0.512986 -3.966250 -34.070742 -13.813468 22.786150 -0.012998 0.000028 -0.000002 -0.000000 -0.000001 -0.000000 
-4.077283 73.057709 1.268223 -17.459695 -30.077971 -2.791189 1.969451 2.025582 0.375011 6.587620 0.709284 -2.313313 6.621540 0.646905 -2.263994 3.587763 6.290488 -1.005124 9.101904 28.140181 -4.420585 0.000000 0.000001 -0.000000 -1.380159 1.082511 3.421749 -18.383181 -12.728552 -62.945726 0.000090 -104.461753 0.000108 -0.521133 -10.779215 -15.088641 0.255310 3.378218 -45.814344 5.654094 5.847757 -88.067462 2.162137 4.544818 -50.866376 -0.000001 0.000000 -0.000000 -6.141215 -11.690804 -6.761687 9.914108 42.595522 3.409852 -0.422804 8.108087 27.509115 -0.000002 0.000002 0.000001 8.494282 19.933571 0.690498 -50.540975 28.576685 58.300910 -0.000006 108.051926 -0.000010 -27.903261 18.710552 2.549891 -7.341092 13.749658 7.412322 9.855750 -44.489107 -3.903269 -0.115774 -14.513088 -28.973874 -0.000000 -0.000002 0.000001 -0.124377 -2.384785 45.108861 4.500580 -4.654546 88.071157 1.723228 -3.618378 50.920119 0.000001 -0.000000 -0.000001 -19.218470 1.413329 10.192024 52.524185 -5.811941 9.832038 -23.630518 -13.515918 -21.211043 -1.478788 -0.000002 0.000001 -0.000000 -0.000000 0.000000 0.781110 -32.487826 -38.235290 50.043553 2.350122 -3.990421 -34.519025 -15.389632 22.884013 -0.012998 0.000027 -0.000002 -0.000000 0.000000 0.000000 
-6.074430 73.095795 2.523129 -20.117137 -22.556980 -0.790421 -1.708106 6.331900 -0.722347 6.323225 4.150668 -4.061514 6.328665 4.094402 -3.959718 2.478210 4.261753 -4.176984 -1.736399 30.586376 -4.315873 0.000000 0.000001 0.000000 -1.533516 1.823141 7.805271 -22.670912 -11.372787 -66.477254 0.000013 -106.534791 0.000004 -8.867630 -14.425325 -19.537910 0.255311 3.378218 -45.814344 5.654093 5.847757 -88.067462 2.162137 4.544817 -50.866376 0.000002 0.000001 0.000002 -6.141216 -11.690804 -6.761680 9.914113 42.595525 3.409856 -0.422803 8.108088 27.509113 0.000001 0.000006 -0.000003 9.891905 24.119155 -0.561506 -52.014305 26.912287 51.944979 -0.000039 111.584780 0.000032 -24.875667 15.189818 -1.798917 -7.341096 13.749663 7.412321 9.855752 -44.489100 -3.903276 -0.115770 -14.513086 -28.973884 -0.000001 -0.000001 0.000001 -0.124376 -2.384782 45.108857 4.500583 -4.654548 88.071157 1.723228 -3.618379 50.920119 -0.000002 -0.000001 -0.000001 -16.709773 -0.803304 8.101403 50.350973 -4.608847 9.861212 -23.753561 -20.903782 -23.259989 -1.827096 -0.000000 -0.000000 -0.000000 0.000002 0.000000 11.890112 -40.836140 -35.494185 43.378344 3.576946 -3.285224 -34.662209 -20.257742 22.953354 -0.012998 0.000028 -0.000002 -0.000000 -0.000001 0.000000 
-8.542894 72.251228 3.738632 -20.828484 -10.637917 3.341205 -5.482236 13.047990 -3.789220 5.382532 8.559729 -7.431709 5.298543 8.532627 -7.240945 -0.559305 2.144751 -7.651331 -22.849464 30.710221 0.983831 0.000001 0.000001 -0.000002 -1.029334 3.212208 8.742075 -43.974366 -2.066656 -68.355304 0.000115 -96.679996 0.000102 -22.511885 -16.932826 -17.425788 0.255313 3.378217 -45.814348 5.654094 5.847757 -88.067462 2.162134 4.544816 -50.866376 -0.000001 -0.000001 0.000001 -6.141211 -11.690800 -6.761685 9.914113 42.595525 3.409853 -0.422805 8.108089 27.509109 -0.000000 -0.000002 0.000002 12.129150 28.950867 -4.682922 -53.296519 23.875826 46.802116 0.000006 115.011151 -0.000006 -21.789799 9.246959 1.859664 -7.341095 13.749656 7.412323 9.855749 -44.489096 -3.903270 -0.115773 -14.513092 -28.973878 -0.000001 -0.000001 -0.000000 -0.124377 -2.384789 45.108861 4.500583 -4.654549 88.071157 1.723223 -3.618381 50.920119 0.000000 -0.000005 0.000002 -19.118403 -4.101904 5.481580 49.785010 -5.102234 9.877682 -23.123658 -27.509541 -25.041225 -1.172511 0.000010 0.000002 0.000000 0.000001 -0.000000 27.169191 -52.789077 -25.564688 34.879618 3.898442 -2.417755 -34.392431 -25.823656 23.361518 -0.012998 0.000027 -0.000002 -0.000000 0.000000 0.000001 
-10.407572 70.849213 4.195326 -20.583417 0.695547 6.722371 -7.487927 17.367938 -6.933843 4.841483 11.011845 -10.433358 4.681168 11.013552 -10.191294 -3.720343 0.059618 -9.047634 -41.209721 26.488519 6.093631 0.000000 0.000001 -0.000001 -0.056911 3.170350 6.087164 -63.418873 2.363153 -62.295560 0.001212 -85.829844 0.001153 -30.643271 -21.148644 -12.794742 0.255311 3.378216 -45.814348 5.654091 5.847756 -88.067455 2.162137 4.544815 -50.866372 0.000001 -0.000000 0.000001 -6.141213 -11.690803 -6.761685 9.914113 42.595525 3.409851 -0.422804 8.108089 27.509115 0.000001 0.000001 0.000002 13.916488 30.808620 -8.307447 -53.583777 25.687141 44.915020 0.000002 115.709101 -0.000007 -18.243749 4.450992 7.762141 -7.341095 13.749657 7.412320 9.855752 -44.489096 -3.903270 -0.115773 -14.513085 -28.973881 0.000000 0.000000 -0.000002 -0.124377 -2.384784 45.108857 4.500585 -4.654547 88.071157 1.723225 -3.618376 50.920116 0.000000 -0.000001 -0.000001 -24.735648 -7.297071 2.581166 50.714008 -7.014597 10.075027 -21.203638 -30.113273 -25.734254 -0.131738 -0.000028 -0.000002 -0.000000 0.000001 0.000000 44.043133 -63.085567 -9.420520 29.223101 6.862542 -1.562164 -35.242840 -30.611354 21.810430 -0.012998 0.000027 -0.000002 -0.000000 -0.000001 0.000000 
